<svg data-v-423bf9ae="" xmlns="http://www.w3.org/2000/svg" viewBox="0 0 403.07923170411726 60" class="font"><!----><!----><!----><g data-v-423bf9ae="" id="2a6519ad-7dbc-43a9-966c-4d9f5401881e" fill="white" transform="matrix(4.441154938483768,0,0,4.441154938483768,-3.2864527720200556,-7.46114035471323)"><path d="M9.95 7.45L9.95 7.45L9.95 7.45Q9.95 8.68 9.59 9.74L9.59 9.74L9.59 9.74Q9.23 10.81 8.55 11.52L8.55 11.52L8.55 11.52Q8.04 12.08 7.35 12.37L7.35 12.37L7.35 12.37Q6.66 12.66 5.78 12.73L5.78 12.73L5.78 12.78L7.56 13.92L7.56 13.92Q8.09 14.25 8.69 14.25L8.69 14.25L8.69 14.25Q8.92 14.25 9.08 14.20L9.08 14.20L9.08 14.20Q9.24 14.14 9.45 13.99L9.45 13.99L9.67 14.36L9.67 14.36Q9.39 14.81 8.96 15.00L8.96 15.00L8.96 15.00Q8.53 15.19 7.90 15.19L7.90 15.19L7.90 15.19Q7.11 15.19 6.52 14.92L6.52 14.92L6.52 14.92Q5.94 14.66 5.61 14.13L5.61 14.13L4.77 12.71L4.77 12.71Q3.07 12.59 2.09 11.56L2.09 11.56L2.09 11.56Q1.44 10.89 1.09 9.88L1.09 9.88L1.09 9.88Q0.74 8.86 0.74 7.67L0.74 7.67L0.74 7.67Q0.74 6.44 1.11 5.38L1.11 5.38L1.11 5.38Q1.47 4.31 2.14 3.60L2.14 3.60L2.14 3.60Q2.73 2.97 3.50 2.67L3.50 2.67L3.50 2.67Q4.27 2.38 5.35 2.38L5.35 2.38L5.35 2.38Q7.46 2.38 8.60 3.56L8.60 3.56L8.60 3.56Q9.25 4.23 9.60 5.24L9.60 5.24L9.60 5.24Q9.95 6.26 9.95 7.45ZM2.35 7.36L2.35 7.36L2.35 7.36Q2.35 8.55 2.55 9.47L2.55 9.47L2.55 9.47Q2.74 10.39 3.11 10.93L3.11 10.93L3.11 10.93Q3.79 11.97 5.38 11.97L5.38 11.97L5.38 11.97Q6.87 11.97 7.57 11.05L7.57 11.05L7.57 11.05Q8.34 10.00 8.34 7.64L8.34 7.64L8.34 7.64Q8.34 6.48 8.15 5.60L8.15 5.60L8.15 5.60Q7.95 4.72 7.57 4.17L7.57 4.17L7.57 4.17Q6.85 3.14 5.31 3.14L5.31 3.14L5.31 3.14Q3.84 3.14 3.12 4.06L3.12 4.06L3.12 4.06Q2.35 5.05 2.35 7.36ZM13.40 5.04L13.40 9.00L13.40 9.00Q13.40 9.45 13.41 9.79L13.41 9.79L13.41 9.79Q13.43 10.12 13.45 10.36L13.45 10.36L13.45 10.36Q13.47 10.60 13.51 10.77L13.51 10.77L13.51 10.77Q13.55 10.93 13.62 11.06L13.62 11.06L13.62 11.06Q13.94 11.75 14.80 11.75L14.80 11.75L14.80 11.75Q15.18 11.75 15.53 11.61L15.53 11.61L15.53 11.61Q15.88 11.47 16.14 11.23L16.14 11.23L16.14 11.23Q16.45 10.95 16.60 10.58L16.60 10.58L16.60 10.58Q16.74 10.21 16.77 9.62L16.77 9.62L16.77 5.88L15.55 5.61L15.55 5.04L18.13 5.04L18.13 11.76L19.21 12.03L19.21 12.60L17.04 12.74L16.88 11.20L16.83 11.20L16.83 11.20Q16.42 11.91 15.72 12.33L15.72 12.33L15.72 12.33Q15.02 12.74 14.22 12.74L14.22 12.74L14.22 12.74Q13.69 12.74 13.25 12.54L13.25 12.54L13.25 12.54Q12.81 12.35 12.56 11.98L12.56 11.98L12.56 11.98Q12.28 11.59 12.16 10.88L12.16 10.88L12.16 10.88Q12.04 10.18 12.04 8.97L12.04 8.97L12.04 5.88L11.10 5.61L11.10 5.04L13.40 5.04ZM24.28 5.85L24.28 5.85L24.28 5.85Q24.15 5.77 24.00 5.77L24.00 5.77L24.00 5.77Q23.73 5.77 23.44 6.10L23.44 6.10L23.44 6.10Q23.14 6.43 22.92 6.93L22.92 6.93L22.92 6.93Q22.72 7.41 22.61 7.97L22.61 7.97L22.61 7.97Q22.50 8.54 22.50 9.14L22.50 9.14L22.50 11.76L24.01 12.03L24.01 12.60L20.06 12.60L20.06 12.03L21.14 11.76L21.14 5.88L20.06 5.61L20.06 5.04L22.08 5.04L22.39 6.89L22.44 6.89L22.44 6.89Q22.76 5.94 23.30 5.42L23.30 5.42L23.30 5.42Q23.84 4.90 24.51 4.90L24.51 4.90L24.51 4.90Q25.06 4.90 25.42 5.24L25.42 5.24L25.42 5.24Q25.79 5.59 25.79 6.16L25.79 6.16L25.79 6.16Q25.79 6.58 25.57 6.82L25.57 6.82L25.57 6.82Q25.35 7.07 24.99 7.07L24.99 7.07L24.99 7.07Q24.63 7.07 24.42 6.84L24.42 6.84L24.42 6.84Q24.21 6.61 24.21 6.23L24.21 6.23L24.21 6.23Q24.21 6.15 24.22 6.08L24.22 6.08L24.22 6.08Q24.23 6.01 24.28 5.85ZM27.76 5.81L27.10 5.81L27.10 5.81Q27.10 5.35 27.05 4.89L27.05 4.89L27.05 4.89Q26.99 4.42 26.92 4.01L26.92 4.01L26.92 4.01Q26.85 3.60 26.80 3.27L26.80 3.27L26.80 3.27Q26.74 2.94 26.74 2.74L26.74 2.74L26.74 2.74Q26.74 2.39 26.89 2.18L26.89 2.18L26.89 2.18Q27.03 1.96 27.44 1.96L27.44 1.96L27.44 1.96Q27.83 1.96 27.98 2.17L27.98 2.17L27.98 2.17Q28.13 2.38 28.13 2.74L28.13 2.74L28.13 2.74Q28.13 2.94 28.07 3.27L28.07 3.27L28.07 3.27Q28.01 3.60 27.94 4.01L27.94 4.01L27.94 4.01Q27.87 4.42 27.82 4.89L27.82 4.89L27.82 4.89Q27.76 5.35 27.76 5.81L27.76 5.81ZM29.27 10.96L29.27 10.96L29.27 10.96Q29.27 10.42 29.52 10.00L29.52 10.00L29.52 10.00Q29.76 9.58 30.30 9.25L30.30 9.25L30.30 9.25Q30.83 8.92 31.67 8.68L31.67 8.68L31.67 8.68Q32.51 8.44 33.68 8.26L33.68 8.26L33.68 8.26Q33.61 7.43 33.52 6.97L33.52 6.97L33.52 6.97Q33.43 6.51 33.28 6.23L33.28 6.23L33.28 6.23Q33.08 5.87 32.73 5.69L32.73 5.69L32.73 5.69Q32.38 5.52 31.98 5.52L31.98 5.52L31.98 5.52Q31.58 5.52 31.27 5.66L31.27 5.66L31.27 5.66Q30.95 5.80 30.84 6.03L30.84 6.03L30.84 6.03Q31.04 6.19 31.13 6.40L31.13 6.40L31.13 6.40Q31.22 6.62 31.22 6.82L31.22 6.82L31.22 6.82Q31.22 7.17 30.99 7.37L30.99 7.37L30.99 7.37Q30.76 7.57 30.42 7.57L30.42 7.57L30.42 7.57Q30.09 7.57 29.87 7.35L29.87 7.35L29.87 7.35Q29.65 7.13 29.65 6.72L29.65 6.72L29.65 6.72Q29.65 6.29 29.89 5.94L29.89 5.94L29.89 5.94Q30.13 5.60 30.51 5.37L30.51 5.37L30.51 5.37Q30.90 5.14 31.38 5.02L31.38 5.02L31.38 5.02Q31.86 4.90 32.34 4.90L32.34 4.90L32.34 4.90Q33.53 4.90 34.22 5.59L34.22 5.59L34.22 5.59Q35.08 6.45 35.08 8.67L35.08 8.67L35.08 10.70L35.08 10.70Q35.08 11.40 35.17 11.65L35.17 11.65L35.17 11.65Q35.27 11.91 35.57 11.91L35.57 11.91L36.20 11.91L36.20 12.33L36.20 12.33Q35.20 12.74 34.64 12.74L34.64 12.74L34.64 12.74Q34.43 12.74 34.29 12.67L34.29 12.67L34.29 12.67Q34.15 12.60 34.06 12.42L34.06 12.42L34.06 12.42Q33.98 12.25 33.94 11.96L33.94 11.96L33.94 11.96Q33.91 11.66 33.91 11.21L33.91 11.21L33.85 11.21L33.85 11.21Q33.42 11.93 32.70 12.33L32.70 12.33L32.70 12.33Q31.99 12.74 31.16 12.74L31.16 12.74L31.16 12.74Q30.28 12.74 29.78 12.27L29.78 12.27L29.78 12.27Q29.27 11.80 29.27 10.96ZM31.75 11.93L31.75 11.93L31.75 11.93Q32.14 11.93 32.57 11.72L32.57 11.72L32.57 11.72Q33.00 11.52 33.29 11.16L33.29 11.16L33.29 11.16Q33.73 10.63 33.73 9.59L33.73 9.59L33.73 9.59Q33.73 9.35 33.71 9.12L33.71 9.12L33.71 9.12Q33.70 8.89 33.67 8.68L33.67 8.68L33.67 8.68Q32.82 8.85 32.25 9.03L32.25 9.03L32.25 9.03Q31.68 9.21 31.34 9.44L31.34 9.44L31.34 9.44Q31.00 9.67 30.86 9.97L30.86 9.97L30.86 9.97Q30.72 10.28 30.72 10.67L30.72 10.67L30.72 10.67Q30.72 11.27 30.99 11.60L30.99 11.60L30.99 11.60Q31.26 11.93 31.75 11.93ZM37.84 11.76L37.84 5.88L36.76 5.61L36.76 5.04L38.78 5.04L39.09 6.44L39.14 6.44L39.14 6.44Q39.56 5.73 40.27 5.31L40.27 5.31L40.27 5.31Q40.98 4.90 41.80 4.90L41.80 4.90L41.80 4.90Q42.36 4.90 42.81 5.10L42.81 5.10L42.81 5.10Q43.26 5.29 43.53 5.66L43.53 5.66L43.53 5.66Q43.81 6.05 43.92 6.75L43.92 6.75L43.92 6.75Q44.04 7.46 44.04 8.67L44.04 8.67L44.04 11.76L45.12 12.03L45.12 12.60L41.75 12.60L41.75 12.03L42.69 11.76L42.69 8.64L42.69 8.64Q42.69 7.74 42.64 7.29L42.64 7.29L42.64 7.29Q42.59 6.83 42.46 6.58L42.46 6.58L42.46 6.58Q42.11 5.89 41.23 5.89L41.23 5.89L41.23 5.89Q40.84 5.89 40.47 6.03L40.47 6.03L40.47 6.03Q40.11 6.17 39.83 6.41L39.83 6.41L39.83 6.41Q39.52 6.69 39.38 7.06L39.38 7.06L39.38 7.06Q39.23 7.43 39.20 8.02L39.20 8.02L39.20 11.76L40.14 12.03L40.14 12.60L36.76 12.60L36.76 12.03L37.84 11.76ZM49.92 12.75L49.92 12.75L49.92 12.75Q49.08 12.75 48.41 12.50L48.41 12.50L48.41 12.50Q47.74 12.25 47.29 11.79L47.29 11.79L47.14 12.60L46.35 12.60L46.35 9.42L47.21 9.42L47.21 9.42Q47.29 10.77 47.87 11.38L47.87 11.38L47.87 11.38Q48.45 11.98 49.66 11.98L49.66 11.98L49.66 11.98Q51.66 11.98 51.66 10.46L51.66 10.46L51.66 10.46Q51.66 10.01 51.48 9.67L51.48 9.67L51.48 9.67Q51.31 9.34 50.99 9.06L50.99 9.06L50.99 9.06Q50.67 8.79 50.20 8.56L50.20 8.56L50.20 8.56Q49.73 8.33 49.14 8.09L49.14 8.09L49.14 8.09Q48.47 7.83 47.96 7.57L47.96 7.57L47.96 7.57Q47.45 7.31 47.10 6.98L47.10 6.98L47.10 6.98Q46.76 6.65 46.58 6.22L46.58 6.22L46.58 6.22Q46.40 5.80 46.40 5.18L46.40 5.18L46.40 5.18Q46.40 3.85 47.23 3.11L47.23 3.11L47.23 3.11Q48.06 2.37 49.46 2.37L49.46 2.37L49.46 2.37Q50.85 2.37 51.72 3.15L51.72 3.15L51.83 2.52L52.61 2.52L52.61 5.70L51.81 5.70L51.81 5.70Q51.81 4.34 51.32 3.73L51.32 3.73L51.32 3.73Q50.82 3.12 49.73 3.12L49.73 3.12L49.73 3.12Q47.81 3.12 47.81 4.87L47.81 4.87L47.81 4.87Q47.81 5.22 47.89 5.47L47.89 5.47L47.89 5.47Q47.98 5.71 48.21 5.92L48.21 5.92L48.21 5.92Q48.44 6.13 48.83 6.33L48.83 6.33L48.83 6.33Q49.22 6.52 49.84 6.79L49.84 6.79L49.84 6.79Q50.71 7.17 51.32 7.51L51.32 7.51L51.32 7.51Q51.94 7.85 52.33 8.23L52.33 8.23L52.33 8.23Q52.71 8.61 52.89 9.04L52.89 9.04L52.89 9.04Q53.07 9.48 53.07 10.02L53.07 10.02L53.07 10.02Q53.07 10.67 52.84 11.18L52.84 11.18L52.84 11.18Q52.61 11.69 52.20 12.04L52.20 12.04L52.20 12.04Q51.79 12.39 51.20 12.57L51.20 12.57L51.20 12.57Q50.62 12.75 49.92 12.75ZM60.77 8.90L55.89 8.90L55.89 8.90Q55.89 9.93 56.17 10.60L56.17 10.60L56.17 10.60Q56.45 11.26 56.96 11.53L56.96 11.53L56.96 11.53Q57.47 11.80 58.09 11.80L58.09 11.80L58.09 11.80Q58.76 11.80 59.30 11.53L59.30 11.53L59.30 11.53Q59.84 11.26 60.27 10.78L60.27 10.78L60.72 11.12L60.72 11.12Q60.47 11.45 60.18 11.75L60.18 11.75L60.18 11.75Q59.89 12.04 59.53 12.26L59.53 12.26L59.53 12.26Q59.16 12.49 58.72 12.61L58.72 12.61L58.72 12.61Q58.27 12.74 57.72 12.74L57.72 12.74L57.72 12.74Q56.76 12.74 56.01 12.33L56.01 12.33L56.01 12.33Q55.27 11.91 54.88 11.12L54.88 11.12L54.88 11.12Q54.67 10.68 54.57 10.16L54.57 10.16L54.57 10.16Q54.47 9.63 54.47 9.02L54.47 9.02L54.47 9.02Q54.47 7.04 55.37 5.97L55.37 5.97L55.37 5.97Q56.27 4.90 57.83 4.90L57.83 4.90L57.83 4.90Q59.28 4.90 60.05 5.79L60.05 5.79L60.05 5.79Q60.82 6.68 60.82 8.25L60.82 8.25L60.82 8.25Q60.82 8.39 60.81 8.50L60.81 8.50L60.81 8.50Q60.80 8.62 60.77 8.90L60.77 8.90ZM57.75 5.66L57.75 5.66L57.75 5.66Q56.07 5.66 55.90 8.22L55.90 8.22L59.40 8.22L59.40 7.76L59.40 7.76Q59.40 6.75 58.98 6.20L58.98 6.20L58.98 6.20Q58.55 5.66 57.75 5.66ZM61.96 10.96L61.96 10.96L61.96 10.96Q61.96 10.42 62.21 10.00L62.21 10.00L62.21 10.00Q62.45 9.58 62.99 9.25L62.99 9.25L62.99 9.25Q63.52 8.92 64.36 8.68L64.36 8.68L64.36 8.68Q65.20 8.44 66.37 8.26L66.37 8.26L66.37 8.26Q66.30 7.43 66.21 6.97L66.21 6.97L66.21 6.97Q66.12 6.51 65.97 6.23L65.97 6.23L65.97 6.23Q65.77 5.87 65.42 5.69L65.42 5.69L65.42 5.69Q65.07 5.52 64.67 5.52L64.67 5.52L64.67 5.52Q64.27 5.52 63.96 5.66L63.96 5.66L63.96 5.66Q63.64 5.80 63.53 6.03L63.53 6.03L63.53 6.03Q63.73 6.19 63.82 6.40L63.82 6.40L63.82 6.40Q63.91 6.62 63.91 6.82L63.91 6.82L63.91 6.82Q63.91 7.17 63.68 7.37L63.68 7.37L63.68 7.37Q63.45 7.57 63.11 7.57L63.11 7.57L63.11 7.57Q62.78 7.57 62.56 7.35L62.56 7.35L62.56 7.35Q62.34 7.13 62.34 6.72L62.34 6.72L62.34 6.72Q62.34 6.29 62.58 5.94L62.58 5.94L62.58 5.94Q62.82 5.60 63.20 5.37L63.20 5.37L63.20 5.37Q63.59 5.14 64.07 5.02L64.07 5.02L64.07 5.02Q64.55 4.90 65.03 4.90L65.03 4.90L65.03 4.90Q66.22 4.90 66.91 5.59L66.91 5.59L66.91 5.59Q67.77 6.45 67.77 8.67L67.77 8.67L67.77 10.70L67.77 10.70Q67.77 11.40 67.87 11.65L67.87 11.65L67.87 11.65Q67.96 11.91 68.26 11.91L68.26 11.91L68.89 11.91L68.89 12.33L68.89 12.33Q67.89 12.74 67.33 12.74L67.33 12.74L67.33 12.74Q67.12 12.74 66.98 12.67L66.98 12.67L66.98 12.67Q66.84 12.60 66.75 12.42L66.75 12.42L66.75 12.42Q66.67 12.25 66.63 11.96L66.63 11.96L66.63 11.96Q66.60 11.66 66.60 11.21L66.60 11.21L66.54 11.21L66.54 11.21Q66.11 11.93 65.39 12.33L65.39 12.33L65.39 12.33Q64.68 12.74 63.85 12.74L63.85 12.74L63.85 12.74Q62.97 12.74 62.47 12.27L62.47 12.27L62.47 12.27Q61.96 11.80 61.96 10.96ZM64.44 11.93L64.44 11.93L64.44 11.93Q64.83 11.93 65.26 11.72L65.26 11.72L65.26 11.72Q65.69 11.52 65.98 11.16L65.98 11.16L65.98 11.16Q66.42 10.63 66.42 9.59L66.42 9.59L66.42 9.59Q66.42 9.35 66.40 9.12L66.40 9.12L66.40 9.12Q66.39 8.89 66.36 8.68L66.36 8.68L66.36 8.68Q65.51 8.85 64.94 9.03L64.94 9.03L64.94 9.03Q64.37 9.21 64.03 9.44L64.03 9.44L64.03 9.44Q63.69 9.67 63.55 9.97L63.55 9.97L63.55 9.97Q63.41 10.28 63.41 10.67L63.41 10.67L63.41 10.67Q63.41 11.27 63.68 11.60L63.68 11.60L63.68 11.60Q63.95 11.93 64.44 11.93ZM73.67 5.85L73.67 5.85L73.67 5.85Q73.54 5.77 73.39 5.77L73.39 5.77L73.39 5.77Q73.12 5.77 72.83 6.10L72.83 6.10L72.83 6.10Q72.53 6.43 72.31 6.93L72.31 6.93L72.31 6.93Q72.11 7.41 72.00 7.97L72.00 7.97L72.00 7.97Q71.89 8.54 71.89 9.14L71.89 9.14L71.89 11.76L73.40 12.03L73.40 12.60L69.45 12.60L69.45 12.03L70.53 11.76L70.53 5.88L69.45 5.61L69.45 5.04L71.47 5.04L71.78 6.89L71.83 6.89L71.83 6.89Q72.16 5.94 72.70 5.42L72.70 5.42L72.70 5.42Q73.23 4.90 73.91 4.90L73.91 4.90L73.91 4.90Q74.45 4.90 74.82 5.24L74.82 5.24L74.82 5.24Q75.18 5.59 75.18 6.16L75.18 6.16L75.18 6.16Q75.18 6.58 74.96 6.82L74.96 6.82L74.96 6.82Q74.75 7.07 74.38 7.07L74.38 7.07L74.38 7.07Q74.02 7.07 73.81 6.84L73.81 6.84L73.81 6.84Q73.60 6.61 73.60 6.23L73.60 6.23L73.60 6.23Q73.60 6.15 73.61 6.08L73.61 6.08L73.61 6.08Q73.63 6.01 73.67 5.85ZM79.52 4.90L79.52 4.90L79.52 4.90Q80.74 4.90 81.46 5.49L81.46 5.49L81.46 5.49Q82.18 6.09 82.18 7.08L82.18 7.08L82.18 7.08Q82.18 8.16 81.31 8.16L81.31 8.16L81.31 8.16Q80.91 8.16 80.68 7.94L80.68 7.94L80.68 7.94Q80.46 7.71 80.46 7.34L80.46 7.34L80.46 7.34Q80.46 6.99 80.65 6.73L80.65 6.73L80.65 6.73Q80.84 6.48 81.16 6.38L81.16 6.38L81.16 6.38Q80.75 5.61 79.60 5.61L79.60 5.61L79.60 5.61Q78.46 5.61 77.93 6.36L77.93 6.36L77.93 6.36Q77.41 7.10 77.41 8.69L77.41 8.69L77.41 8.69Q77.41 10.02 77.77 10.72L77.77 10.72L77.77 10.72Q78.33 11.80 79.60 11.80L79.60 11.80L79.60 11.80Q80.25 11.80 80.84 11.52L80.84 11.52L80.84 11.52Q81.42 11.24 81.84 10.72L81.84 10.72L82.26 11.06L82.26 11.06Q81.70 11.93 80.98 12.33L80.98 12.33L80.98 12.33Q80.25 12.74 79.27 12.74L79.27 12.74L79.27 12.74Q78.29 12.74 77.57 12.34L77.57 12.34L77.57 12.34Q76.85 11.94 76.44 11.17L76.44 11.17L76.44 11.17Q76.20 10.72 76.07 10.14L76.07 10.14L76.07 10.14Q75.94 9.56 75.94 8.90L75.94 8.90L75.94 8.90Q75.94 7.99 76.19 7.26L76.19 7.26L76.19 7.26Q76.44 6.52 76.91 6.00L76.91 6.00L76.91 6.00Q77.38 5.47 78.04 5.19L78.04 5.19L78.04 5.19Q78.71 4.90 79.52 4.90ZM89.07 11.76L89.07 8.64L89.07 8.64Q89.07 7.74 89.02 7.29L89.02 7.29L89.02 7.29Q88.97 6.83 88.84 6.58L88.84 6.58L88.84 6.58Q88.49 5.89 87.61 5.89L87.61 5.89L87.61 5.89Q87.22 5.89 86.86 6.03L86.86 6.03L86.86 6.03Q86.49 6.17 86.21 6.41L86.21 6.41L86.21 6.41Q85.90 6.69 85.76 7.06L85.76 7.06L85.76 7.06Q85.61 7.42 85.58 7.97L85.58 7.97L85.58 11.76L86.52 12.03L86.52 12.60L83.15 12.60L83.15 12.03L84.22 11.76L84.22 2.52L83.15 2.25L83.15 1.68L85.58 1.68L85.58 6.36L85.58 6.36Q86.00 5.68 86.70 5.29L86.70 5.29L86.70 5.29Q87.39 4.90 88.19 4.90L88.19 4.90L88.19 4.90Q88.75 4.90 89.19 5.10L89.19 5.10L89.19 5.10Q89.64 5.29 89.91 5.66L89.91 5.66L89.91 5.66Q90.19 6.05 90.31 6.75L90.31 6.75L90.31 6.75Q90.43 7.46 90.43 8.67L90.43 8.67L90.43 11.76L91.50 12.03L91.50 12.60L88.13 12.60L88.13 12.03L89.07 11.76Z"></path></g><!----><!----></svg>